#!OML:ASF E:\Steps\Project 1\Capture day 1\Session 2\Subject.ASF
:FULLY-SPECIFIED
:DEGREES
314
root 9.36806 23.3363 20.8231 -153.226 1.41461 178.218
lowerback -14.4055 -1.22039 -5.41777
upperback 2.27748 -0.340311 -1.89142
thorax 10.646 -0.379725 0.935934
lowerneck 12.6136 -5.56259 1.14525
upperneck -9.16832 -7.23416 0.360185
head -4.83143 -3.60565 0.489155
rclavicle -5.56597e-015 -4.29375e-014
rhumerus -37.76 8.68189 -87.6582
rradius 36.5407
rwrist 1.36523
rhand -3.96973 -55.243
rfingers 7.12502
rthumb -158.217 95.9628
lclavicle -5.56597e-015 -4.29375e-014
lhumerus -33.8295 -15.8994 86.8512
lradius 41.3976
lwrist 0.17926
lhand -27.6688 -14.8857
lfingers 7.12502
lthumb -1.06601 15.0914
rfemur -40.4571 3.85827 15.4115
rtibia 20.0065
rfoot 17.617 -14.3479
rtoes -17.1606
lfemur -46.2588 -2.99317 -19.2028
ltibia 32.2139
lfoot 29.946 7.3077
ltoes -46.3885
315
root 9.37897 23.2234 20.6867 -153.273 1.61633 178.26
lowerback -14.0618 -1.26769 -5.59258
upperback 2.36535 -0.397224 -1.86983
thorax 10.5496 -0.41831 1.04744
lowerneck 12.3068 -5.46655 1.11215
upperneck -9.55565 -7.12285 0.271164
head -4.90371 -3.54039 0.456452
rclavicle 7.95139e-016 2.38542e-015
rhumerus -38.5604 8.89194 -87.7963
rradius 37.07
rwrist 0.858191
rhand -3.97141 -54.6862
rfingers 7.12502
rthumb -158.219 96.5195
lclavicle 7.95139e-016 2.38542e-015
lhumerus -34.3435 -14.8607 86.8519
lradius 40.8832
lwrist 0.231277
lhand -28.226 -15.4638
lfingers 7.12502
lthumb -1.60415 14.5099
rfemur -40.8667 3.85905 15.4151
rtibia 19.353
rfoot 17.4719 -14.6696
rtoes -17.699
lfemur -46.2606 -2.96167 -18.8931
ltibia 30.7724
lfoot 30.0344 7.99567
ltoes -45.9673
316
root 9.38745 23.0941 20.5462 -153.326 1.88033 178.331
lowerback -13.8413 -1.18212 -5.56749
upperback 2.38858 -0.271347 -2.0772
thorax 10.438 -0.342896 0.840343
lowerneck 12.4501 -5.37875 1.30602
upperneck -9.7214 -6.95935 0.354806
head -4.98231 -3.47282 0.446587
rclavicle -5.1684e-015 -1.82882e-014
rhumerus -39.5128 8.71629 -88.2
rradius 37.4863
rwrist 0.334086
rhand -3.68303 -55.1164
rfingers 7.12502
rthumb -157.942 96.1217
lclavicle -5.1684e-015 -1.82882e-014
lhumerus -35.2506 -14.5661 86.6768
lradius 40.7939
lwrist 0.417118
lhand -28.7362 -15.8318
lfingers 7.12502
lthumb -2.09696 14.1377
rfemur -41.3507 3.96594 15.4312
rtibia 18.8931
rfoot 16.709 -14.8061
rtoes -19.5676
lfemur -46.1491 -2.85275 -18.6258
ltibia 29.1408
lfoot 30.2921 8.3701
ltoes -46.5589
317
root 9.39168 22.9507 20.4008 -153.365 2.14115 178.437
lowerback -14.0309 -1.11371 -5.41343
upperback 2.64245 -0.153002 -2.26302
thorax 10.8249 -0.277783 0.571715
lowerneck 12.5295 -5.23508 1.27807
upperneck -10.1136 -6.74465 0.539322
head -5.10956 -3.37676 0.500246
rclavicle -3.97569e-016 -2.54444e-014
rhumerus -40.03 8.70559 -88.5156
rradius 37.9744
rwrist -0.272523
rhand -3.37756 -55.6502
rfingers 7.12502
rthumb -157.648 95.6227
lclavicle -3.97569e-016 -2.54444e-014
lhumerus -35.6787 -14.0426 86.2895
lradius 40.8379
lwrist 1.11675
lhand -27.6056 -15.6547
lfingers 7.12502
lthumb -1.00504 14.3227
rfemur -41.8632 4.13114 15.4727
rtibia 18.5481
rfoot 16.1678 -14.8975
rtoes -20.1716
lfemur -45.9897 -2.77697 -18.3235
ltibia 27.5515
lfoot 30.4897 8.84782
ltoes -46.4886
318
root 9.39845 22.7979 20.2544 -153.346 2.29133 178.501
lowerback -13.7421 -1.096 -5.52979
upperback 2.55072 -0.13832 -2.24175
thorax 10.5531 -0.272701 0.669347
lowerneck 12.474 -5.26953 1.22594
upperneck -10.104 -6.80447 0.509261
head -5.09678 -3.40155 0.502097
rclavicle -1.98785e-015 -1.51076e-014
rhumerus -41.1547 8.82758 -88.598
rradius 38.6734
rwrist -0.751786
rhand -3.55361 -54.9434
rfingers 7.12502
rthumb -157.817 96.3093
lclavicle -1.98785e-015 -1.51076e-014
lhumerus -36.6272 -13.53 86.4359
lradius 40.7255
lwrist 1.24237
lhand -27.402 -15.2589
lfingers 7.12502
lthumb -0.808313 14.7193
rfemur -42.3161 4.22388 15.4679
rtibia 18.0271
rfoot 15.739 -15.0619
rtoes -20.6843
lfemur -45.9167 -2.82166 -17.9886
ltibia 26.084
lfoot 30.2487 9.40372
ltoes -46.0054
319
root 9.41046 22.6345 20.1105 -153.284 2.36957 178.583
lowerback -13.8278 -1.11795 -5.51656
upperback 2.66478 -0.144026 -2.3214
thorax 10.7316 -0.274423 0.570814
lowerneck 12.422 -5.27482 1.25072
upperneck -10.1893 -6.79385 0.614306
head -5.11192 -3.40413 0.529789
rclavicle 3.57812e-015 2.78299e-014
rhumerus -41.7644 8.71201 -88.7949
rradius 39.0752
rwrist -1.04041
rhand -3.75936 -54.4101
rfingers 7.12502
rthumb -158.015 96.8193
lclavicle 3.57812e-015 2.78299e-014
lhumerus -37.101 -13.073 86.2563
lradius 40.3974
lwrist 1.25834
lhand -27.6395 -15.2886
lfingers 7.12502
lthumb -1.0377 14.6887
rfemur -42.6975 4.26434 15.5264
rtibia 17.2641
rfoot 15.3418 -15.054
rtoes -22.3402
lfemur -45.9051 -2.7577 -17.6542
ltibia 24.5324
lfoot 29.8038 9.71729
ltoes -45.9918
320
root 9.41844 22.4597 19.9589 -153.445 2.45003 178.694
lowerback -13.698 -1.13553 -5.40706
upperback 2.78412 -0.178957 -2.40087
thorax 10.7896 -0.282217 0.414269
lowerneck 12.2891 -5.2873 1.38442
upperneck -10.3866 -6.78848 0.593296
head -5.15704 -3.40324 0.50169
rclavicle -5.96354e-015 -1.90833e-014
rhumerus -42.4867 8.48988 -88.92
rradius 39.5328
rwrist -1.21584
rhand -3.70878 -54.6998
rfingers 7.12502
rthumb -157.966 96.5353
lclavicle -5.96354e-015 -1.90833e-014
lhumerus -37.6641 -12.5089 86.0204
lradius 40.0829
lwrist 1.04201
lhand -27.2714 -14.9428
lfingers 7.12502
lthumb -0.682233 15.0358
rfemur -42.7222 4.24966 15.6612
rtibia 16.3271
rfoot 15.3118 -14.9185
rtoes -23.9415
lfemur -45.568 -2.82135 -17.2453
ltibia 22.8603
lfoot 29.3342 10.1646
ltoes -45.946
